<?xml version="1.0" encoding="iso-8859-1"?>
<!-- Generator: Adobe Illustrator 19.0.0, SVG Export Plug-In . SVG Version: 6.00 Build 0)  -->
<svg version="1.1" id="Capa_1" xmlns="http://www.w3.org/2000/svg" xmlns:xlink="http://www.w3.org/1999/xlink" x="0px" y="0px"
	 viewBox="0 0 512 512" style="enable-background:new 0 0 512 512;" xml:space="preserve">
<rect x="7.5" y="61" style="fill:#7A666C;" width="497" height="50"/>
<rect x="474.5" y="61" style="fill:#6A545A;" width="30" height="50"/>
<rect x="7.5" y="111" style="fill:#F1EBE0;" width="497" height="340"/>
<rect x="474.5" y="111" style="fill:#E8E1D7;" width="30" height="340"/>
<rect x="7.5" y="61" style="fill:#FF993B;" width="112" height="50"/>
<path style="fill:#FF5A51;" d="M351,383H161c-16.569,0-30-13.431-30-30v-96c0-16.569,13.431-30,30-30h190c16.569,0,30,13.431,30,30
	v96C381,369.569,367.569,383,351,383z"/>
<path style="fill:#E75955;" d="M351,227h-30c16.569,0,30,13.432,30,30v96c0,16.568-13.431,30-30,30h30c16.569,0,30-13.432,30-30v-96
	C381,240.432,367.569,227,351,227z"/>
<circle style="fill:#A85759;" cx="256" cy="305" r="45"/>
<path style="fill:#53575D;" d="M256,320c-8.271,0-15-6.729-15-15s6.729-15,15-15s15,6.729,15,15S264.271,320,256,320z"/>
<rect x="224" y="197" style="fill:#FFBD2A;" width="64" height="30"/>
<rect x="258" y="197" style="fill:#FF993B;" width="30" height="30"/>
<path d="M504.5,53.5h-385H7.5C3.358,53.5,0,56.857,0,61l0,0v322c0,4.143,3.358,7.5,7.5,7.5s7.5-3.357,7.5-7.5V118.5l0,0h482v9.375
	c0,4.143,3.357,7.5,7.5,7.5s7.5-3.357,7.5-7.5V61l0,0C512,56.857,508.643,53.5,504.5,53.5z M15,103.5v-35h97v35H15z M127,103.5v-35
	h370v35H127z"/>
<path d="M504.5,152.375c-4.143,0-7.5,3.357-7.5,7.5V443.5H15v-27c0-4.143-3.358-7.5-7.5-7.5S0,412.357,0,416.5V451
	c0,4.143,3.358,7.5,7.5,7.5h497c4.143,0,7.5-3.357,7.5-7.5V159.875C512,155.732,508.643,152.375,504.5,152.375z"/>
<circle cx="36.5" cy="86" r="7.5"/>
<circle cx="92.5" cy="86" r="7.5"/>
<circle cx="64.5" cy="86" r="7.5"/>
<path d="M123.5,257v96c0,20.678,16.822,37.5,37.5,37.5h126.75c4.143,0,7.5-3.357,7.5-7.5s-3.357-7.5-7.5-7.5H161
	c-12.407,0-22.5-10.094-22.5-22.5v-96c0-12.406,10.093-22.5,22.5-22.5l0,0h190l0,0c12.406,0,22.5,10.094,22.5,22.5v96
	c0,12.406-10.094,22.5-22.5,22.5h-30.75c-4.143,0-7.5,3.357-7.5,7.5s3.357,7.5,7.5,7.5H351c20.678,0,37.5-16.822,37.5-37.5v-96
	c0-20.678-16.822-37.5-37.5-37.5h-55.5V197c0-4.143-3.357-7.5-7.5-7.5h-64c-4.142,0-7.5,3.357-7.5,7.5v22.5H161
	C140.322,219.5,123.5,236.322,123.5,257z M231.5,204.5h49v15h-49V204.5z"/>
<path d="M203.5,305c0,28.948,23.551,52.5,52.5,52.5c28.948,0,52.5-23.552,52.5-52.5s-23.552-52.5-52.5-52.5
	C227.051,252.5,203.5,276.052,203.5,305z M293.5,305c0,20.678-16.822,37.5-37.5,37.5s-37.5-16.822-37.5-37.5s16.822-37.5,37.5-37.5
	S293.5,284.322,293.5,305z"/>
<path d="M233.5,305c0,12.406,10.093,22.5,22.5,22.5c12.406,0,22.5-10.094,22.5-22.5s-10.094-22.5-22.5-22.5
	C243.593,282.5,233.5,292.594,233.5,305z M263.5,305c0,4.136-3.364,7.5-7.5,7.5s-7.5-3.364-7.5-7.5s3.364-7.5,7.5-7.5
	C260.136,297.5,263.5,300.864,263.5,305z"/>
<path d="M263.5,154.728v-14.349c0-4.143-3.357-7.5-7.5-7.5c-4.142,0-7.5,3.357-7.5,7.5v14.349c0,4.143,3.358,7.5,7.5,7.5
	C260.143,162.228,263.5,158.87,263.5,154.728z"/>
<path d="M220.434,171.797c1.269,0,2.555-0.322,3.734-1c3.59-2.066,4.826-6.651,2.76-10.241l-7.151-12.427
	c-2.066-3.592-6.653-4.826-10.241-2.761c-3.59,2.066-4.826,6.651-2.76,10.241l7.151,12.427
	C215.314,170.448,217.838,171.797,220.434,171.797z"/>
<path d="M190.626,196.868c1.184,0.687,2.476,1.012,3.752,1.012c2.588,0,5.106-1.341,6.497-3.741
	c2.076-3.584,0.854-8.173-2.73-10.249l-12.385-7.175c-3.583-2.077-8.173-0.854-10.249,2.729s-0.854,8.173,2.73,10.249
	L190.626,196.868z"/>
<path d="M317.622,197.698c1.276,0,2.569-0.326,3.753-1.012l12.385-7.175c3.584-2.076,4.807-6.665,2.729-10.249
	c-2.076-3.584-6.666-4.805-10.249-2.729l-12.385,7.175c-3.584,2.076-4.807,6.665-2.729,10.249
	C312.517,196.357,315.034,197.698,317.622,197.698z"/>
<path d="M291.566,171.482c2.596,0,5.12-1.35,6.508-3.761l7.15-12.427c2.065-3.59,0.83-8.175-2.761-10.241
	c-3.589-2.063-8.175-0.829-10.241,2.761l-7.15,12.427c-2.065,3.59-0.83,8.175,2.761,10.241
	C289.012,171.16,290.297,171.482,291.566,171.482z"/>
<g>
</g>
<g>
</g>
<g>
</g>
<g>
</g>
<g>
</g>
<g>
</g>
<g>
</g>
<g>
</g>
<g>
</g>
<g>
</g>
<g>
</g>
<g>
</g>
<g>
</g>
<g>
</g>
<g>
</g>
</svg>
